<svg width="608" height="205" viewBox="0 0 608 205" fill="none" xmlns="http://www.w3.org/2000/svg">
  <path fill-rule="evenodd" clip-rule="evenodd" d="M72.45 10.5664C77.8655 17.4477 81.9636 29.3069 74.6455 39.8485L78.7436 38.9701C76.2554 49.6581 60.8873 63.4207 52.5445 69.8628C43.7627 76.7441 41.2745 83.479 41.2745 90.3603C41.2745 92.8493 43.47 105.587 56.2036 111.883C61.18 112.615 73.7673 111.151 95.1364 107.344C99.0882 106.612 107.577 103.537 120.457 98.1201C127.922 100.755 131.727 104.269 131.727 108.662C131.727 115.982 128.8 138.676 127.336 143.215C125.434 155.952 123.45 193.843 123.385 195.044C123.341 195.845 123.683 196.528 124.409 197.094L132.898 197.24C131.727 172.204 131.435 155.66 132.313 147.607C132.313 146.436 134.508 145.118 137.435 140.579C138.46 139.115 144.195 129.102 145.485 121.546C146.346 116.508 146.151 112.595 144.9 109.808C148.315 110.313 150.267 110.907 150.755 111.59C150.755 107.49 149.145 99.877 147.388 98.1201C144.461 94.167 141.534 92.41 134.801 91.0923C136.557 89.189 138.46 88.1641 140.363 87.8713C142.265 87.5785 144.461 88.1641 146.803 89.4818C142.319 85.0739 136.06 82.969 129.825 83.7718C119.14 84.5038 112.261 88.6034 108.895 89.4818C107.528 89.8722 104.283 89.9517 99.1585 89.7201C98.9925 89.9605 98.7337 90.4179 98.3822 91.0923C98.0306 91.7668 97.5651 92.2657 96.9857 92.5891C95.4213 91.256 94.6391 90.0099 94.6391 88.8507C94.6391 87.533 95.4291 87.1392 96.8927 86.2608C99.5273 84.3574 104.796 81.8684 106.845 79.3795C111.09 73.8158 110.065 72.6446 112.7 69.1307C115.335 65.4704 126.751 62.6886 129.825 60.1996C132.752 57.5642 130.264 45.5585 133.045 45.5585C135.679 45.5585 144.754 54.0504 149.145 60.1996C151.047 63.1279 154.999 69.5699 157.048 77.1833C157.634 79.3795 158.951 82.4541 161 86.2608L155.731 84.9431L158.073 90.3603C158.832 92.6882 159.323 95.0952 159.536 97.5344C159.39 99.877 159.829 102.512 161 105.441L158.073 104.562C156.902 110.419 156.17 113.932 155.731 115.25C153.243 123.303 145.925 131.648 142.705 152.292C140.646 166.56 142.316 193.341 142.412 195.337C142.508 197.332 144.9 197.655 144.9 197.972C153.535 198.704 161 199.729 161 200.608C161 203.097 124.995 205 80.5 205C36.0055 205 0 203.097 0 200.608C0 199.436 8.92818 198.265 23.4182 197.533C38.64 157.124 46.6412 135.943 47.4218 133.991C48.5927 131.062 50.3491 129.306 52.2518 128.866C39.8597 128.378 32.0048 127.549 28.6873 126.377C23.7109 124.62 11.8555 119.057 3.80545 103.391C-4.24455 87.7249 2.63455 70.0092 8.19636 62.3958C13.7582 54.7824 35.42 41.3126 40.5427 29.3069C42.4455 23.7433 42.0064 14.8123 40.8355 8.80942C42.1239 9.12229 43.3249 9.72296 44.3482 10.5664L43.9091 6.17403C43.4167 4.51046 42.5102 2.99914 41.2745 1.7817C50.0652 -2.99973 70.2545 1.7817 71.4255 16.862C72.2685 14.6171 72.61 12.5185 72.45 10.5664ZM111.242 174.967C111.491 165.694 111.442 156.417 111.096 147.135C107.254 147.762 99.8872 148.739 88.9957 150.065C87.9495 153.405 85.6295 156.364 83.4341 158.415C75.3844 166.325 56.2116 169.987 50.0645 174.235C45.9665 177.165 43.1857 179.948 41.5758 182.731L34.1116 197.087L55.6261 196.501L57.3824 187.858C57.8215 185.221 57.9679 181.12 57.8215 175.114L75.9699 168.376C72.7733 172.619 70.1184 177.244 68.0665 182.145C66.603 185.807 64.9311 194.788 64.8467 195.329C64.7904 195.69 65.1319 195.982 65.8712 196.208C80.3118 196.047 95.193 196.243 109.632 196.501C110.457 191.419 110.993 184.241 111.242 174.967ZM120.216 50.5277C121.44 49.3033 126.951 52.3641 127.564 52.7314C128.176 53.2212 127.564 57.8736 127.564 57.8736C127.564 57.8736 122.788 61.3018 121.808 59.7101C120.338 57.2615 119.726 51.1398 120.216 50.5277Z" fill="#E17C13"/>
  <path d="M404.112 45L359.563 142.487C358.01 146.304 357.229 149.31 357.229 151.515C357.229 154.628 359.006 156.179 362.561 156.179C362.858 156.179 364.177 155.833 366.547 155.128C366.948 155.009 367.308 154.934 367.63 154.899L367.63 154.899C372.992 142.879 377.815 132.188 380.182 127.238C387.234 112.493 401.189 92.6543 432.623 92.6543C441.012 92.6543 446.894 94.8101 450.932 98.1771C457.672 104.435 460.166 114.715 456.69 126.977C450.279 149.613 431.329 168.752 404.652 172.043C396.162 173.092 389.019 171.486 383.747 167.911L379.129 178.032L371.597 194.535L366.883 204.855L345.469 205C348.036 199.157 354.455 184.568 361.192 169.377C357.753 171.562 354.198 172.654 350.517 172.654C338.336 172.753 334.743 166.693 334.649 154.478C334.649 152.301 335.218 149.351 336.36 145.63L336.361 145.631C325.828 159.611 309.121 170.376 292.847 172.34C270.06 175.087 256.741 159.536 263.096 137.606C263.788 135.217 264.686 132.852 265.765 130.53L265.765 130.53C253.111 149.936 239.681 166.317 239.681 166.317L220.043 166.212C220.043 166.212 211.471 102.991 210.117 98.2317C208.767 93.466 202 96.9276 202 96.9276V89.5671L229.06 79.6103L239.435 149.758C256.073 132.869 268.753 108.188 268.753 96.0649C268.753 83.936 257.476 84.3746 257.476 84.3746C257.743 74.4126 268.204 65.6571 276.744 65.6584C282.684 65.6584 287.693 69.8946 287.693 80.9078C287.693 90.6938 281.315 104.692 273.209 118.532L273.207 118.531C283.777 105.09 300.026 94.8372 315.868 92.9285C317.624 92.7169 319.322 92.6132 320.962 92.6132C337.979 92.6143 348.436 103.745 347.087 119.899L381.52 45.1517L404.112 45ZM581.765 92.6132C597.77 92.6145 607.969 102.463 608 117.076C607.992 120.486 607.479 123.981 606.412 127.657C600.063 149.585 576.43 169.59 553.645 172.34C530.854 175.087 517.54 159.536 523.891 137.606C524.379 135.923 524.969 134.252 525.653 132.6L525.655 132.6C515.981 139.78 500.328 145.127 477.046 145.331C476.396 148.771 476.177 151.836 476.441 154.357C476.441 154.357 476.441 163.282 483.067 163.503C489.702 163.729 505.472 161.716 515.31 154.357L515.534 159.262C515.534 159.262 505.479 172.654 478.243 172.645C478.154 172.645 478.065 172.649 477.971 172.649C477.694 172.649 477.423 172.629 477.147 172.625C476.836 172.617 476.525 172.613 476.234 172.597C475.938 172.587 475.647 172.566 475.361 172.546C473.296 172.407 471.617 172.144 470.303 171.759C463.846 170.143 459.751 166.534 457.171 162.769C455.234 160.13 453.895 157.031 453.23 153.548C452.881 151.964 452.801 150.949 452.801 150.949C452.801 150.662 452.811 150.393 452.816 150.129C452.591 146.411 453.048 142.357 454.315 138.036C458.622 123.393 470.889 109.632 485.355 101.478C485.355 101.478 486.103 101.057 487.422 100.406C490.415 98.8562 493.485 97.5454 496.599 96.5124C502.258 94.4861 509.401 92.6132 516.47 92.6132C521.059 92.6132 525.617 93.4028 529.714 95.4543C536.044 98.6225 539.407 105.755 538.214 113.663L538.211 113.663C548.62 102.663 562.799 94.5993 576.671 92.9285C578.427 92.7169 580.125 92.6132 581.765 92.6132ZM312.837 104.493C305.324 106.528 295.257 121.356 290.346 137.617C285.81 152.623 287.258 163.601 293.414 163.601C293.927 163.601 294.475 163.523 295.052 163.367C302.562 161.331 312.633 146.497 317.543 130.241C322.456 113.984 320.345 102.453 312.837 104.493ZM423.843 104.493C416.333 106.531 406.263 121.363 401.351 137.618C396.82 152.627 398.268 163.602 404.422 163.601C404.933 163.601 405.48 163.525 406.057 163.368C413.574 161.331 423.633 146.501 428.55 130.244C433.464 113.988 431.358 102.455 423.843 104.493ZM573.672 104.493C566.163 106.528 556.095 121.356 551.178 137.617C546.649 152.623 548.098 163.601 554.255 163.601C554.768 163.601 555.316 163.523 555.893 163.367C563.404 161.331 573.469 146.497 578.379 130.241C583.295 113.984 581.184 102.453 573.672 104.493ZM510.765 121.964C512.932 110.262 510.148 102.817 503.371 104.495C495.293 106.49 484.538 120.731 478.985 136.605C488.019 136.559 507.013 134.878 510.765 121.964Z" fill="#48413B"/>
</svg>
